<svg xmlns="http://www.w3.org/2000/svg" viewBox="0 0 900 700"><defs><linearGradient id="g" x1="0" x2="1"><stop stop-color="#f6fbf9"/><stop offset="1" stop-color="#dff3ed"/></linearGradient></defs><rect width="900" height="700" rx="42" fill="url(#g)"/><rect x="55" y="45" width="360" height="610" rx="45" fill="#fff" stroke="#b9c9c4" stroke-width="5"/><rect x="80" y="85" width="310" height="95" rx="18" fill="#eaf2ed"/><text x="235" y="125" text-anchor="middle" font-family="Arial" font-size="25" font-weight="700" fill="#18352d">هلوسات أفكار</text><text x="235" y="158" text-anchor="middle" font-family="Arial" font-size="18" fill="#28775c">الرصيد الصافي</text><text x="235" y="220" text-anchor="middle" font-family="Arial" font-size="40" font-weight="700" fill="#28775c">4000 ريال يمني</text><g fill="#fff" stroke="#d5e1dc" stroke-width="3"><rect x="80" y="260" width="140" height="100" rx="20"/><rect x="250" y="260" width="140" height="100" rx="20"/><rect x="80" y="380" width="140" height="100" rx="20"/><rect x="250" y="380" width="140" height="100" rx="20"/></g><g font-family="Arial" fill="#344c45" font-size="19" text-anchor="middle"><text x="150" y="315">العملاء</text><text x="320" y="315">المبيعات</text><text x="150" y="435">الموردون</text><text x="320" y="435">المشتريات</text></g><rect x="80" y="520" width="310" height="90" rx="20" fill="#d9f3e9"/><text x="235" y="575" text-anchor="middle" font-family="Arial" font-size="24" font-weight="700" fill="#28775c">إضافة عملية +</text><rect x="500" y="120" width="320" height="450" rx="32" fill="#fff" stroke="#cbdad4" stroke-width="5"/><text x="660" y="175" text-anchor="middle" font-family="Arial" font-size="27" font-weight="700" fill="#17372e">تفاصيل الحساب</text><rect x="535" y="210" width="250" height="70" rx="18" fill="#237456"/><text x="660" y="255" text-anchor="middle" font-family="Arial" font-size="28" font-weight="700" fill="#fff">12500 ريال يمني</text><g fill="#f3f7f5"><rect x="535" y="310" width="250" height="55" rx="14"/><rect x="535" y="380" width="250" height="55" rx="14"/><rect x="535" y="450" width="250" height="55" rx="14"/></g><g font-family="Arial" font-size="18" fill="#4d625b"><text x="660" y="345" text-anchor="middle">عملية بيع · 2500</text><text x="660" y="415" text-anchor="middle">دفعة · 1000</text><text x="660" y="485" text-anchor="middle">عملية شراء · 500</text></g></svg>