<svg xmlns="http://www.w3.org/2000/svg" viewBox="0 0 900 700"><rect width="900" height="700" rx="42" fill="#111019"/><rect x="65" y="40" width="340" height="620" rx="48" fill="#18151e" stroke="#4a4652" stroke-width="5"/><text x="235" y="105" text-anchor="middle" font-family="Arial" font-size="27" fill="#fff">StatusVault</text><rect x="90" y="130" width="290" height="65" rx="22" fill="#24212c"/><text x="235" y="170" text-anchor="middle" font-family="Arial" font-size="18" fill="#ddd">حالات واتساب</text><g fill="#2a2732"><rect x="90" y="220" width="135" height="145" rx="22"/><rect x="245" y="220" width="135" height="145" rx="22"/><rect x="90" y="385" width="135" height="145" rx="22"/><rect x="245" y="385" width="135" height="145" rx="22"/></g><g fill="#2fd66f" font-family="Arial" font-size="17" text-anchor="middle"><text x="157" y="350">حفظ ↓</text><text x="312" y="350">مفضلة ♡</text><text x="157" y="515">عرض ◉</text><text x="312" y="515">مشاركة ↗</text></g><rect x="475" y="95" width="330" height="500" rx="38" fill="#17141d" stroke="#413c49" stroke-width="5"/><text x="640" y="150" text-anchor="middle" font-family="Arial" font-size="25" fill="#fff">المحفوظات</text><rect x="510" y="180" width="260" height="52" rx="15" fill="#27232e"/><text x="640" y="214" text-anchor="middle" font-family="Arial" font-size="16" fill="#aaa">بحث بالاسم أو النوع</text><g fill="#0b0a0f"><rect x="510" y="260" width="120" height="100" rx="18"/><rect x="650" y="260" width="120" height="100" rx="18"/><rect x="510" y="385" width="120" height="100" rx="18"/><rect x="650" y="385" width="120" height="100" rx="18"/></g><text x="640" y="555" text-anchor="middle" font-family="Arial" font-size="19" fill="#2fd66f">صور · فيديوهات · الكل</text></svg>